<svg xmlns="http://www.w3.org/2000/svg" xmlns:xlink="http://www.w3.org/1999/xlink" width="729" zoomAndPan="magnify" viewBox="0 0 546.75 392.999991" height="524" preserveAspectRatio="xMidYMid meet" version="1.2"><defs><clipPath id="493727ec6c"><path d="M 0 81.054688 L 143.933594 81.054688 L 143.933594 224.988281 L 0 224.988281 Z M 0 81.054688 "/></clipPath><clipPath id="b1bb89b0cf"><path d="M 71.96875 81.054688 C 32.222656 81.054688 0 113.273438 0 153.019531 C 0 192.765625 32.222656 224.988281 71.96875 224.988281 C 111.714844 224.988281 143.933594 192.765625 143.933594 153.019531 C 143.933594 113.273438 111.714844 81.054688 71.96875 81.054688 Z M 71.96875 81.054688 "/></clipPath><clipPath id="f5735fd52d"><path d="M 191.164062 21.828125 L 335.097656 21.828125 L 335.097656 165.765625 L 191.164062 165.765625 Z M 191.164062 21.828125 "/></clipPath><clipPath id="3483b15114"><path d="M 263.128906 21.828125 C 223.382812 21.828125 191.164062 54.050781 191.164062 93.796875 C 191.164062 133.542969 223.382812 165.765625 263.128906 165.765625 C 302.875 165.765625 335.097656 133.542969 335.097656 93.796875 C 335.097656 54.050781 302.875 21.828125 263.128906 21.828125 Z M 263.128906 21.828125 "/></clipPath><clipPath id="ed0c1b473f"><path d="M 32.234375 248.976562 L 176.167969 248.976562 L 176.167969 392.910156 L 32.234375 392.910156 Z M 32.234375 248.976562 "/></clipPath><clipPath id="6349038add"><path d="M 104.203125 248.976562 C 64.457031 248.976562 32.234375 281.195312 32.234375 320.941406 C 32.234375 360.6875 64.457031 392.910156 104.203125 392.910156 C 143.949219 392.910156 176.167969 360.6875 176.167969 320.941406 C 176.167969 281.195312 143.949219 248.976562 104.203125 248.976562 Z M 104.203125 248.976562 "/></clipPath><clipPath id="962947be43"><path d="M 389.820312 0.0898438 L 533.757812 0.0898438 L 533.757812 144.023438 L 389.820312 144.023438 Z M 389.820312 0.0898438 "/></clipPath><clipPath id="fa60a8c148"><path d="M 461.789062 0.0898438 C 422.042969 0.0898438 389.820312 32.3125 389.820312 72.058594 C 389.820312 111.804688 422.042969 144.023438 461.789062 144.023438 C 501.535156 144.023438 533.757812 111.804688 533.757812 72.058594 C 533.757812 32.3125 501.535156 0.0898438 461.789062 0.0898438 Z M 461.789062 0.0898438 "/></clipPath><clipPath id="fd52ed3319"><path d="M 217.402344 192.75 L 361.335938 192.75 L 361.335938 336.6875 L 217.402344 336.6875 Z M 217.402344 192.75 "/></clipPath><clipPath id="46648b39ff"><path d="M 289.367188 192.75 C 249.621094 192.75 217.402344 224.972656 217.402344 264.71875 C 217.402344 304.464844 249.621094 336.6875 289.367188 336.6875 C 329.113281 336.6875 361.335938 304.464844 361.335938 264.71875 C 361.335938 224.972656 329.113281 192.75 289.367188 192.75 Z M 289.367188 192.75 "/></clipPath><clipPath id="1aba5782f0"><path d="M 402.566406 169.511719 L 546.5 169.511719 L 546.5 313.445312 L 402.566406 313.445312 Z M 402.566406 169.511719 "/></clipPath><clipPath id="8da7a5fc30"><path d="M 474.53125 169.511719 C 434.785156 169.511719 402.566406 201.734375 402.566406 241.480469 C 402.566406 281.226562 434.785156 313.445312 474.53125 313.445312 C 514.28125 313.445312 546.5 281.226562 546.5 241.480469 C 546.5 201.734375 514.28125 169.511719 474.53125 169.511719 Z M 474.53125 169.511719 "/></clipPath></defs><g id="213166a3bb"><g clip-rule="nonzero" clip-path="url(#493727ec6c)"><g clip-rule="nonzero" clip-path="url(#b1bb89b0cf)"><path style=" stroke:none;fill-rule:nonzero;fill:#737373;fill-opacity:1;" d="M 0 81.054688 L 143.933594 81.054688 L 143.933594 224.988281 L 0 224.988281 Z M 0 81.054688 "/></g></g><g clip-rule="nonzero" clip-path="url(#f5735fd52d)"><g clip-rule="nonzero" clip-path="url(#3483b15114)"><path style=" stroke:none;fill-rule:nonzero;fill:#737373;fill-opacity:1;" d="M 191.164062 21.828125 L 335.097656 21.828125 L 335.097656 165.765625 L 191.164062 165.765625 Z M 191.164062 21.828125 "/></g></g><g clip-rule="nonzero" clip-path="url(#ed0c1b473f)"><g clip-rule="nonzero" clip-path="url(#6349038add)"><path style=" stroke:none;fill-rule:nonzero;fill:#737373;fill-opacity:1;" d="M 32.234375 248.976562 L 176.167969 248.976562 L 176.167969 392.910156 L 32.234375 392.910156 Z M 32.234375 248.976562 "/></g></g><g clip-rule="nonzero" clip-path="url(#962947be43)"><g clip-rule="nonzero" clip-path="url(#fa60a8c148)"><path style=" stroke:none;fill-rule:nonzero;fill:#737373;fill-opacity:1;" d="M 389.820312 0.0898438 L 533.757812 0.0898438 L 533.757812 144.023438 L 389.820312 144.023438 Z M 389.820312 0.0898438 "/></g></g><g clip-rule="nonzero" clip-path="url(#fd52ed3319)"><g clip-rule="nonzero" clip-path="url(#46648b39ff)"><path style=" stroke:none;fill-rule:nonzero;fill:#737373;fill-opacity:1;" d="M 217.402344 192.75 L 361.335938 192.75 L 361.335938 336.6875 L 217.402344 336.6875 Z M 217.402344 192.75 "/></g></g><g clip-rule="nonzero" clip-path="url(#1aba5782f0)"><g clip-rule="nonzero" clip-path="url(#8da7a5fc30)"><path style=" stroke:none;fill-rule:nonzero;fill:#ff3131;fill-opacity:1;" d="M 402.566406 169.511719 L 546.5 169.511719 L 546.5 313.445312 L 402.566406 313.445312 Z M 402.566406 169.511719 "/></g></g></g></svg>