<svg xmlns="http://www.w3.org/2000/svg" xmlns:xlink="http://www.w3.org/1999/xlink" width="1920" zoomAndPan="magnify" viewBox="0 0 1440 809.999993" height="1080" preserveAspectRatio="xMidYMid meet" version="1.2"><defs><clipPath id="1ac14f0d0f"><path d="M 549.324219 308.183594 L 667.761719 308.183594 L 667.761719 426.621094 L 549.324219 426.621094 Z M 549.324219 308.183594 "/></clipPath><clipPath id="b5acef4e31"><path d="M 608.542969 308.183594 C 575.835938 308.183594 549.324219 334.695312 549.324219 367.402344 C 549.324219 400.109375 575.835938 426.621094 608.542969 426.621094 C 641.25 426.621094 667.761719 400.109375 667.761719 367.402344 C 667.761719 334.695312 641.25 308.183594 608.542969 308.183594 Z M 608.542969 308.183594 "/></clipPath><clipPath id="6175decbcd"><path d="M 706.625 259.453125 L 825.058594 259.453125 L 825.058594 377.890625 L 706.625 377.890625 Z M 706.625 259.453125 "/></clipPath><clipPath id="d63f2a0fda"><path d="M 765.84375 259.453125 C 733.136719 259.453125 706.625 285.964844 706.625 318.671875 C 706.625 351.375 733.136719 377.890625 765.84375 377.890625 C 798.546875 377.890625 825.058594 351.375 825.058594 318.671875 C 825.058594 285.964844 798.546875 259.453125 765.84375 259.453125 Z M 765.84375 259.453125 "/></clipPath><clipPath id="0b6ef8a4a6"><path d="M 575.851562 446.359375 L 694.285156 446.359375 L 694.285156 564.796875 L 575.851562 564.796875 Z M 575.851562 446.359375 "/></clipPath><clipPath id="e3619d493f"><path d="M 635.066406 446.359375 C 602.363281 446.359375 575.851562 472.875 575.851562 505.578125 C 575.851562 538.285156 602.363281 564.796875 635.066406 564.796875 C 667.773438 564.796875 694.285156 538.285156 694.285156 505.578125 C 694.285156 472.875 667.773438 446.359375 635.066406 446.359375 Z M 635.066406 446.359375 "/></clipPath><clipPath id="78cc2ff170"><path d="M 870.089844 241.5625 L 988.527344 241.5625 L 988.527344 360 L 870.089844 360 Z M 870.089844 241.5625 "/></clipPath><clipPath id="0b0512f8ac"><path d="M 929.308594 241.5625 C 896.605469 241.5625 870.089844 268.078125 870.089844 300.78125 C 870.089844 333.488281 896.605469 360 929.308594 360 C 962.015625 360 988.527344 333.488281 988.527344 300.78125 C 988.527344 268.078125 962.015625 241.5625 929.308594 241.5625 Z M 929.308594 241.5625 "/></clipPath><clipPath id="9bb571ad8e"><path d="M 728.214844 400.097656 L 846.648438 400.097656 L 846.648438 518.53125 L 728.214844 518.53125 Z M 728.214844 400.097656 "/></clipPath><clipPath id="465c8319c5"><path d="M 787.433594 400.097656 C 754.726562 400.097656 728.214844 426.609375 728.214844 459.3125 C 728.214844 492.019531 754.726562 518.53125 787.433594 518.53125 C 820.136719 518.53125 846.648438 492.019531 846.648438 459.3125 C 846.648438 426.609375 820.136719 400.097656 787.433594 400.097656 Z M 787.433594 400.097656 "/></clipPath><clipPath id="83032c0b87"><path d="M 880.578125 380.972656 L 999.015625 380.972656 L 999.015625 499.410156 L 880.578125 499.410156 Z M 880.578125 380.972656 "/></clipPath><clipPath id="96094f01ea"><path d="M 939.796875 380.972656 C 907.089844 380.972656 880.578125 407.484375 880.578125 440.191406 C 880.578125 472.898438 907.089844 499.410156 939.796875 499.410156 C 972.5 499.410156 999.015625 472.898438 999.015625 440.191406 C 999.015625 407.484375 972.5 380.972656 939.796875 380.972656 Z M 939.796875 380.972656 "/></clipPath><clipPath id="acbc0d0eca"><path d="M 344.894531 388.4375 L 515.398438 388.4375 L 515.398438 558.9375 L 344.894531 558.9375 Z M 344.894531 388.4375 "/></clipPath><clipPath id="a8ddc0cb32"><path d="M 430.148438 388.4375 C 383.0625 388.4375 344.894531 426.605469 344.894531 473.6875 C 344.894531 520.769531 383.0625 558.9375 430.148438 558.9375 C 477.230469 558.9375 515.398438 520.769531 515.398438 473.6875 C 515.398438 426.605469 477.230469 388.4375 430.148438 388.4375 Z M 430.148438 388.4375 "/></clipPath><clipPath id="11a6d6496b"><path d="M 421.046875 407.191406 L 439.246094 407.191406 L 439.246094 485.53125 L 421.046875 485.53125 Z M 421.046875 407.191406 "/></clipPath><clipPath id="0aaff595aa"><path d="M 370.929688 347.972656 L 489.363281 347.972656 L 489.363281 466.40625 L 370.929688 466.40625 Z M 370.929688 347.972656 "/></clipPath><clipPath id="2eacc20d56"><path d="M 430.148438 347.972656 C 397.441406 347.972656 370.929688 374.484375 370.929688 407.191406 C 370.929688 439.894531 397.441406 466.40625 430.148438 466.40625 C 462.851562 466.40625 489.363281 439.894531 489.363281 407.191406 C 489.363281 374.484375 462.851562 347.972656 430.148438 347.972656 Z M 430.148438 347.972656 "/></clipPath></defs><g id="2367cbe1cf"><g clip-rule="nonzero" clip-path="url(#1ac14f0d0f)"><g clip-rule="nonzero" clip-path="url(#b5acef4e31)"><path style=" stroke:none;fill-rule:nonzero;fill:#ff3131;fill-opacity:1;" d="M 549.324219 308.183594 L 667.761719 308.183594 L 667.761719 426.621094 L 549.324219 426.621094 Z M 549.324219 308.183594 "/></g></g><g clip-rule="nonzero" clip-path="url(#6175decbcd)"><g clip-rule="nonzero" clip-path="url(#d63f2a0fda)"><path style=" stroke:none;fill-rule:nonzero;fill:#ff3131;fill-opacity:1;" d="M 706.625 259.453125 L 825.058594 259.453125 L 825.058594 377.890625 L 706.625 377.890625 Z M 706.625 259.453125 "/></g></g><g clip-rule="nonzero" clip-path="url(#0b6ef8a4a6)"><g clip-rule="nonzero" clip-path="url(#e3619d493f)"><path style=" stroke:none;fill-rule:nonzero;fill:#ff3131;fill-opacity:1;" d="M 575.851562 446.359375 L 694.285156 446.359375 L 694.285156 564.796875 L 575.851562 564.796875 Z M 575.851562 446.359375 "/></g></g><g clip-rule="nonzero" clip-path="url(#78cc2ff170)"><g clip-rule="nonzero" clip-path="url(#0b0512f8ac)"><path style=" stroke:none;fill-rule:nonzero;fill:#ff3131;fill-opacity:1;" d="M 870.089844 241.5625 L 988.527344 241.5625 L 988.527344 360 L 870.089844 360 Z M 870.089844 241.5625 "/></g></g><g clip-rule="nonzero" clip-path="url(#9bb571ad8e)"><g clip-rule="nonzero" clip-path="url(#465c8319c5)"><path style=" stroke:none;fill-rule:nonzero;fill:#ff3131;fill-opacity:1;" d="M 728.214844 400.097656 L 846.648438 400.097656 L 846.648438 518.53125 L 728.214844 518.53125 Z M 728.214844 400.097656 "/></g></g><g clip-rule="nonzero" clip-path="url(#83032c0b87)"><g clip-rule="nonzero" clip-path="url(#96094f01ea)"><path style=" stroke:none;fill-rule:nonzero;fill:#ff3131;fill-opacity:1;" d="M 880.578125 380.972656 L 999.015625 380.972656 L 999.015625 499.410156 L 880.578125 499.410156 Z M 880.578125 380.972656 "/></g></g><g clip-rule="nonzero" clip-path="url(#acbc0d0eca)"><g clip-rule="nonzero" clip-path="url(#a8ddc0cb32)"><path style=" stroke:none;fill-rule:nonzero;fill:#000000;fill-opacity:1;" d="M 344.894531 388.4375 L 515.398438 388.4375 L 515.398438 558.9375 L 344.894531 558.9375 Z M 344.894531 388.4375 "/></g></g><g clip-rule="nonzero" clip-path="url(#11a6d6496b)"><path style=" stroke:none;fill-rule:nonzero;fill:#a6a6a6;fill-opacity:1;" d="M 421.046875 407.191406 L 439.246094 407.191406 L 439.246094 485.53125 L 421.046875 485.53125 Z M 421.046875 407.191406 "/></g><g clip-rule="nonzero" clip-path="url(#0aaff595aa)"><g clip-rule="nonzero" clip-path="url(#2eacc20d56)"><path style=" stroke:none;fill-rule:nonzero;fill:#ff3131;fill-opacity:1;" d="M 370.929688 347.972656 L 489.363281 347.972656 L 489.363281 466.40625 L 370.929688 466.40625 Z M 370.929688 347.972656 "/></g></g><path style="fill:none;stroke-width:23;stroke-linecap:butt;stroke-linejoin:miter;stroke:#000000;stroke-opacity:1;stroke-miterlimit:4;" d="M 2.502215 19.533681 C 50.49282 8.819363 105.010096 8.820378 166.061749 19.532156 " transform="matrix(0.152629,0.5975,-0.5975,0.152629,572.242585,195.632895)"/><path style="fill:none;stroke-width:23;stroke-linecap:butt;stroke-linejoin:miter;stroke:#000000;stroke-opacity:1;stroke-miterlimit:4;" d="M 2.503886 19.534792 C 50.49449 8.820475 105.011766 8.82149 166.063419 19.533268 " transform="matrix(0.152629,0.5975,-0.5975,0.152629,740.184401,147.537977)"/><path style="fill:none;stroke-width:23;stroke-linecap:butt;stroke-linejoin:miter;stroke:#000000;stroke-opacity:1;stroke-miterlimit:4;" d="M 2.50189 19.53584 C 50.492495 8.821522 105.009771 8.822537 166.061424 19.534315 " transform="matrix(0.152629,0.5975,-0.5975,0.152629,914.138456,115.441353)"/><path style="fill:none;stroke-width:23;stroke-linecap:butt;stroke-linejoin:miter;stroke:#000000;stroke-opacity:1;stroke-miterlimit:4;" d="M 2.505329 19.532786 C 50.492984 8.818891 105.011781 8.81953 166.061719 19.534703 " transform="matrix(-0.201414,-0.582867,0.582867,-0.201414,668.924277,688.730385)"/><path style="fill:none;stroke-width:23;stroke-linecap:butt;stroke-linejoin:miter;stroke:#000000;stroke-opacity:1;stroke-miterlimit:4;" d="M 2.504608 19.531399 C 50.490194 8.823491 105.008991 8.82413 166.060998 19.533316 " transform="matrix(-0.201414,-0.582867,0.582867,-0.201414,821.288221,640.073436)"/><path style="fill:none;stroke-width:23;stroke-linecap:butt;stroke-linejoin:miter;stroke:#000000;stroke-opacity:1;stroke-miterlimit:4;" d="M 2.502831 19.533844 C 50.490486 8.819949 105.009283 8.820588 166.059221 19.535761 " transform="matrix(-0.201414,-0.582867,0.582867,-0.201414,981.020813,616.893205)"/><path style="fill:none;stroke-width:23;stroke-linecap:butt;stroke-linejoin:miter;stroke:#000000;stroke-opacity:1;stroke-miterlimit:4;" d="M 2.505469 19.532304 C 50.494506 8.824123 105.011782 8.825138 166.063435 19.536916 " transform="matrix(0.152629,0.5975,-0.5975,0.152629,399.678766,213.521786)"/><g style="fill:#000000;fill-opacity:1;"><g transform="translate(515.397508, 169.148651)"><path style="stroke:none" d="M 7.8125 0.328125 C 5.914062 0.328125 4.34375 -0.03125 3.09375 -0.75 C 1.84375 -1.46875 0.929688 -2.429688 0.359375 -3.640625 L 2.859375 -6.671875 L 3.234375 -6.671875 C 3.640625 -5.691406 4.21875 -4.921875 4.96875 -4.359375 C 5.71875 -3.796875 6.582031 -3.515625 7.5625 -3.515625 C 8.675781 -3.515625 9.5 -3.835938 10.03125 -4.484375 C 10.570312 -5.128906 10.84375 -6.175781 10.84375 -7.625 L 10.84375 -22.3125 L 15.25 -22.3125 L 15.25 -7.546875 C 15.25 -4.859375 14.632812 -2.875 13.40625 -1.59375 C 12.175781 -0.3125 10.3125 0.328125 7.8125 0.328125 Z M 7.8125 0.328125 "/></g></g><g style="fill:#000000;fill-opacity:1;"><g transform="translate(533.401565, 169.148651)"><path style="stroke:none" d="M 11.828125 0.328125 C 8.753906 0.328125 6.472656 -0.398438 4.984375 -1.859375 C 3.503906 -3.328125 2.765625 -5.492188 2.765625 -8.359375 L 2.765625 -22.3125 L 7.078125 -22.3125 L 7.078125 -8.390625 C 7.078125 -6.765625 7.46875 -5.546875 8.25 -4.734375 C 9.039062 -3.921875 10.234375 -3.515625 11.828125 -3.515625 C 14.992188 -3.515625 16.578125 -5.140625 16.578125 -8.390625 L 16.578125 -22.3125 L 20.890625 -22.3125 L 20.890625 -8.359375 C 20.890625 -5.492188 20.144531 -3.328125 18.65625 -1.859375 C 17.175781 -0.398438 14.898438 0.328125 11.828125 0.328125 Z M 11.828125 0.328125 "/></g></g><g style="fill:#000000;fill-opacity:1;"><g transform="translate(557.05096, 169.148651)"><path style="stroke:none" d="M 6.9375 0 L 2.90625 0 L 2.90625 -22.3125 L 8.671875 -22.3125 L 14.3125 -5.90625 L 14.640625 -5.90625 L 20.25 -22.3125 L 25.875 -22.3125 L 25.875 0 L 21.703125 0 L 21.703125 -14.734375 L 21.3125 -14.796875 L 16.15625 0 L 12.484375 0 L 7.328125 -14.796875 L 6.9375 -14.734375 Z M 6.9375 0 "/></g></g><g style="fill:#000000;fill-opacity:1;"><g transform="translate(585.842193, 169.148651)"><path style="stroke:none" d="M 11.515625 -22.3125 C 13.117188 -22.3125 14.484375 -22.015625 15.609375 -21.421875 C 16.742188 -20.835938 17.601562 -20.019531 18.1875 -18.96875 C 18.769531 -17.914062 19.0625 -16.691406 19.0625 -15.296875 C 19.0625 -13.910156 18.769531 -12.691406 18.1875 -11.640625 C 17.601562 -10.597656 16.742188 -9.78125 15.609375 -9.1875 C 14.484375 -8.601562 13.117188 -8.3125 11.515625 -8.3125 L 7.3125 -8.3125 L 7.3125 0 L 2.90625 0 L 2.90625 -22.3125 Z M 10.9375 -11.8125 C 13.394531 -11.8125 14.625 -12.972656 14.625 -15.296875 C 14.625 -17.640625 13.394531 -18.8125 10.9375 -18.8125 L 7.3125 -18.8125 L 7.3125 -11.8125 Z M 10.9375 -11.8125 "/></g></g><g style="fill:#000000;fill-opacity:1;"><g transform="translate(341.95455, 199.166273)"><path style="stroke:none" d="M 6.9375 0 L 2.90625 0 L 2.90625 -22.3125 L 8.671875 -22.3125 L 14.3125 -5.90625 L 14.640625 -5.90625 L 20.25 -22.3125 L 25.875 -22.3125 L 25.875 0 L 21.703125 0 L 21.703125 -14.734375 L 21.3125 -14.796875 L 16.15625 0 L 12.484375 0 L 7.328125 -14.796875 L 6.9375 -14.734375 Z M 6.9375 0 "/></g></g><g style="fill:#000000;fill-opacity:1;"><g transform="translate(370.745782, 199.166273)"><path style="stroke:none" d="M 12.15625 0.328125 C 10.113281 0.328125 8.3125 -0.0859375 6.75 -0.921875 C 5.1875 -1.765625 3.960938 -3.039062 3.078125 -4.75 C 2.191406 -6.46875 1.75 -8.601562 1.75 -11.15625 C 1.75 -13.707031 2.191406 -15.835938 3.078125 -17.546875 C 3.960938 -19.265625 5.1875 -20.539062 6.75 -21.375 C 8.3125 -22.207031 10.113281 -22.625 12.15625 -22.625 C 14.207031 -22.625 16.007812 -22.207031 17.5625 -21.375 C 19.113281 -20.550781 20.328125 -19.28125 21.203125 -17.5625 C 22.085938 -15.84375 22.53125 -13.707031 22.53125 -11.15625 C 22.53125 -8.601562 22.085938 -6.46875 21.203125 -4.75 C 20.328125 -3.03125 19.113281 -1.753906 17.5625 -0.921875 C 16.007812 -0.0859375 14.207031 0.328125 12.15625 0.328125 Z M 12.15625 -3.515625 C 14.050781 -3.515625 15.492188 -4.117188 16.484375 -5.328125 C 17.484375 -6.546875 17.984375 -8.488281 17.984375 -11.15625 C 17.984375 -13.820312 17.484375 -15.765625 16.484375 -16.984375 C 15.492188 -18.203125 14.050781 -18.8125 12.15625 -18.8125 C 10.257812 -18.8125 8.804688 -18.203125 7.796875 -16.984375 C 6.796875 -15.765625 6.296875 -13.820312 6.296875 -11.15625 C 6.296875 -8.488281 6.796875 -6.546875 7.796875 -5.328125 C 8.804688 -4.117188 10.257812 -3.515625 12.15625 -3.515625 Z M 12.15625 -3.515625 "/></g></g><g style="fill:#000000;fill-opacity:1;"><g transform="translate(394.456162, 199.166273)"><path style="stroke:none" d="M 13.265625 0 L 7.9375 0 L 0.390625 -22.3125 L 5.078125 -22.3125 L 10.5 -5.671875 L 10.875 -5.671875 L 16.21875 -22.3125 L 20.78125 -22.3125 Z M 13.265625 0 "/></g></g><g style="fill:#000000;fill-opacity:1;"><g transform="translate(415.633814, 199.166273)"><path style="stroke:none" d="M 7.3125 -9.796875 L 7.3125 -3.6875 L 17.953125 -3.6875 L 17.953125 0 L 2.90625 0 L 2.90625 -22.3125 L 17.71875 -22.3125 L 17.71875 -18.609375 L 7.3125 -18.609375 L 7.3125 -13.390625 L 16.40625 -13.390625 L 16.40625 -9.796875 Z M 7.3125 -9.796875 "/></g></g><g style="fill:#000000;fill-opacity:1;"><g transform="translate(653.284125, 131.640853)"><path style="stroke:none" d="M 10.828125 0.328125 C 8.972656 0.328125 7.363281 -0.0976562 6 -0.953125 C 4.644531 -1.804688 3.597656 -3.085938 2.859375 -4.796875 C 2.117188 -6.515625 1.75 -8.632812 1.75 -11.15625 C 1.75 -13.695312 2.191406 -15.820312 3.078125 -17.53125 C 3.960938 -19.25 5.191406 -20.523438 6.765625 -21.359375 C 8.335938 -22.203125 10.160156 -22.625 12.234375 -22.625 C 14.367188 -22.625 16.1875 -22.226562 17.6875 -21.4375 C 19.195312 -20.644531 20.257812 -19.46875 20.875 -17.90625 L 17.65625 -15.953125 L 17.265625 -15.953125 C 16.816406 -16.953125 16.175781 -17.679688 15.34375 -18.140625 C 14.507812 -18.597656 13.472656 -18.828125 12.234375 -18.828125 C 10.316406 -18.828125 8.847656 -18.21875 7.828125 -17 C 6.804688 -15.789062 6.296875 -13.84375 6.296875 -11.15625 C 6.296875 -8.457031 6.769531 -6.5 7.71875 -5.28125 C 8.675781 -4.0625 10.085938 -3.453125 11.953125 -3.453125 C 13.554688 -3.453125 14.738281 -3.8125 15.5 -4.53125 C 16.257812 -5.25 16.640625 -6.328125 16.640625 -7.765625 L 16.640625 -8.734375 L 11.375 -8.734375 L 11.375 -12.3125 L 21.03125 -12.3125 L 21.03125 0 L 16.8125 0 L 16.8125 -2.984375 L 16.5 -3.03125 C 16.039062 -1.96875 15.34375 -1.140625 14.40625 -0.546875 C 13.476562 0.0351562 12.285156 0.328125 10.828125 0.328125 Z M 10.828125 0.328125 "/></g></g><g style="fill:#000000;fill-opacity:1;"><g transform="translate(676.552079, 131.640853)"><path style="stroke:none" d="M 2.90625 0 L 2.90625 -22.3125 L 11.859375 -22.3125 C 14.160156 -22.3125 15.898438 -21.78125 17.078125 -20.71875 C 18.253906 -19.65625 18.84375 -18.1875 18.84375 -16.3125 C 18.84375 -14.957031 18.5 -13.847656 17.8125 -12.984375 C 17.125 -12.117188 16.097656 -11.457031 14.734375 -11 L 14.734375 -10.6875 C 15.441406 -10.375 16.007812 -9.914062 16.4375 -9.3125 C 16.875 -8.71875 17.285156 -7.832031 17.671875 -6.65625 L 19.890625 0 L 15.359375 0 L 13.1875 -6.671875 C 12.957031 -7.335938 12.703125 -7.859375 12.421875 -8.234375 C 12.148438 -8.609375 11.796875 -8.878906 11.359375 -9.046875 C 10.929688 -9.210938 10.367188 -9.296875 9.671875 -9.296875 L 7.3125 -9.296875 L 7.3125 0 Z M 11.328125 -12.78125 C 13.460938 -12.78125 14.53125 -13.78125 14.53125 -15.78125 C 14.53125 -17.800781 13.460938 -18.8125 11.328125 -18.8125 L 7.3125 -18.8125 L 7.3125 -12.78125 Z M 11.328125 -12.78125 "/></g></g><g style="fill:#000000;fill-opacity:1;"><g transform="translate(697.409321, 131.640853)"><path style="stroke:none" d="M 21.40625 0 L 16.765625 0 L 15.09375 -5.140625 L 6.546875 -5.140625 L 4.875 0 L 0.328125 0 L 8.046875 -22.3125 L 13.703125 -22.3125 Z M 10.609375 -17.65625 L 7.734375 -8.84375 L 13.875 -8.84375 L 10.984375 -17.65625 Z M 10.609375 -17.65625 "/></g></g><g style="fill:#000000;fill-opacity:1;"><g transform="translate(719.151507, 131.640853)"><path style="stroke:none" d="M 11.515625 -22.3125 C 13.117188 -22.3125 14.484375 -22.015625 15.609375 -21.421875 C 16.742188 -20.835938 17.601562 -20.019531 18.1875 -18.96875 C 18.769531 -17.914062 19.0625 -16.691406 19.0625 -15.296875 C 19.0625 -13.910156 18.769531 -12.691406 18.1875 -11.640625 C 17.601562 -10.597656 16.742188 -9.78125 15.609375 -9.1875 C 14.484375 -8.601562 13.117188 -8.3125 11.515625 -8.3125 L 7.3125 -8.3125 L 7.3125 0 L 2.90625 0 L 2.90625 -22.3125 Z M 10.9375 -11.8125 C 13.394531 -11.8125 14.625 -12.972656 14.625 -15.296875 C 14.625 -17.640625 13.394531 -18.8125 10.9375 -18.8125 L 7.3125 -18.8125 L 7.3125 -11.8125 Z M 10.9375 -11.8125 "/></g></g><g style="fill:#000000;fill-opacity:1;"><g transform="translate(739.53576, 131.640853)"><path style="stroke:none" d="M 11.515625 -22.3125 C 13.117188 -22.3125 14.484375 -22.015625 15.609375 -21.421875 C 16.742188 -20.835938 17.601562 -20.019531 18.1875 -18.96875 C 18.769531 -17.914062 19.0625 -16.691406 19.0625 -15.296875 C 19.0625 -13.910156 18.769531 -12.691406 18.1875 -11.640625 C 17.601562 -10.597656 16.742188 -9.78125 15.609375 -9.1875 C 14.484375 -8.601562 13.117188 -8.3125 11.515625 -8.3125 L 7.3125 -8.3125 L 7.3125 0 L 2.90625 0 L 2.90625 -22.3125 Z M 10.9375 -11.8125 C 13.394531 -11.8125 14.625 -12.972656 14.625 -15.296875 C 14.625 -17.640625 13.394531 -18.8125 10.9375 -18.8125 L 7.3125 -18.8125 L 7.3125 -11.8125 Z M 10.9375 -11.8125 "/></g></g><g style="fill:#000000;fill-opacity:1;"><g transform="translate(759.920014, 131.640853)"><path style="stroke:none" d="M 7.3125 -22.3125 L 7.3125 -3.6875 L 17.328125 -3.6875 L 17.328125 0 L 2.90625 0 L 2.90625 -22.3125 Z M 7.3125 -22.3125 "/></g></g><g style="fill:#000000;fill-opacity:1;"><g transform="translate(777.985101, 131.640853)"><path style="stroke:none" d="M 7.3125 -9.796875 L 7.3125 -3.6875 L 17.953125 -3.6875 L 17.953125 0 L 2.90625 0 L 2.90625 -22.3125 L 17.71875 -22.3125 L 17.71875 -18.609375 L 7.3125 -18.609375 L 7.3125 -13.390625 L 16.40625 -13.390625 L 16.40625 -9.796875 Z M 7.3125 -9.796875 "/></g></g><g style="fill:#000000;fill-opacity:1;"><g transform="translate(841.826268, 91.424552)"><path style="stroke:none" d="M 9.890625 0.328125 C 8.335938 0.328125 6.957031 0.132812 5.75 -0.25 C 4.550781 -0.632812 3.550781 -1.132812 2.75 -1.75 C 1.945312 -2.375 1.332031 -3.054688 0.90625 -3.796875 L 3.328125 -6.765625 L 3.703125 -6.765625 C 4.378906 -5.765625 5.234375 -4.96875 6.265625 -4.375 C 7.296875 -3.789062 8.503906 -3.5 9.890625 -3.5 C 11.066406 -3.5 11.953125 -3.742188 12.546875 -4.234375 C 13.148438 -4.734375 13.453125 -5.421875 13.453125 -6.296875 C 13.453125 -6.828125 13.351562 -7.269531 13.15625 -7.625 C 12.96875 -7.976562 12.648438 -8.28125 12.203125 -8.53125 C 11.753906 -8.789062 11.148438 -9.015625 10.390625 -9.203125 L 7.515625 -9.859375 C 5.515625 -10.316406 4.023438 -11.078125 3.046875 -12.140625 C 2.066406 -13.203125 1.578125 -14.582031 1.578125 -16.28125 C 1.578125 -17.539062 1.890625 -18.648438 2.515625 -19.609375 C 3.148438 -20.566406 4.066406 -21.304688 5.265625 -21.828125 C 6.472656 -22.359375 7.914062 -22.625 9.59375 -22.625 C 11.3125 -22.625 12.785156 -22.394531 14.015625 -21.9375 C 15.242188 -21.488281 16.28125 -20.796875 17.125 -19.859375 L 14.9375 -16.875 L 14.5625 -16.875 C 13.925781 -17.539062 13.203125 -18.035156 12.390625 -18.359375 C 11.578125 -18.691406 10.644531 -18.859375 9.59375 -18.859375 C 8.382812 -18.859375 7.460938 -18.644531 6.828125 -18.21875 C 6.203125 -17.789062 5.890625 -17.203125 5.890625 -16.453125 C 5.890625 -15.742188 6.109375 -15.179688 6.546875 -14.765625 C 6.992188 -14.347656 7.757812 -14.023438 8.84375 -13.796875 L 11.78125 -13.1875 C 13.945312 -12.726562 15.515625 -11.953125 16.484375 -10.859375 C 17.460938 -9.765625 17.953125 -8.335938 17.953125 -6.578125 C 17.953125 -5.179688 17.648438 -3.96875 17.046875 -2.9375 C 16.453125 -1.90625 15.550781 -1.101562 14.34375 -0.53125 C 13.132812 0.0390625 11.648438 0.328125 9.890625 0.328125 Z M 9.890625 0.328125 "/></g></g><g style="fill:#000000;fill-opacity:1;"><g transform="translate(860.989907, 91.424552)"><path style="stroke:none" d="M 17.296875 -13.921875 L 17.296875 -22.3125 L 21.703125 -22.3125 L 21.703125 0 L 17.296875 0 L 17.296875 -10.15625 L 7.3125 -10.15625 L 7.3125 0 L 2.90625 0 L 2.90625 -22.3125 L 7.3125 -22.3125 L 7.3125 -13.921875 Z M 17.296875 -13.921875 "/></g></g><g style="fill:#000000;fill-opacity:1;"><g transform="translate(885.600537, 91.424552)"><path style="stroke:none" d="M 12.15625 0.328125 C 10.113281 0.328125 8.3125 -0.0859375 6.75 -0.921875 C 5.1875 -1.765625 3.960938 -3.039062 3.078125 -4.75 C 2.191406 -6.46875 1.75 -8.601562 1.75 -11.15625 C 1.75 -13.707031 2.191406 -15.835938 3.078125 -17.546875 C 3.960938 -19.265625 5.1875 -20.539062 6.75 -21.375 C 8.3125 -22.207031 10.113281 -22.625 12.15625 -22.625 C 14.207031 -22.625 16.007812 -22.207031 17.5625 -21.375 C 19.113281 -20.550781 20.328125 -19.28125 21.203125 -17.5625 C 22.085938 -15.84375 22.53125 -13.707031 22.53125 -11.15625 C 22.53125 -8.601562 22.085938 -6.46875 21.203125 -4.75 C 20.328125 -3.03125 19.113281 -1.753906 17.5625 -0.921875 C 16.007812 -0.0859375 14.207031 0.328125 12.15625 0.328125 Z M 12.15625 -3.515625 C 14.050781 -3.515625 15.492188 -4.117188 16.484375 -5.328125 C 17.484375 -6.546875 17.984375 -8.488281 17.984375 -11.15625 C 17.984375 -13.820312 17.484375 -15.765625 16.484375 -16.984375 C 15.492188 -18.203125 14.050781 -18.8125 12.15625 -18.8125 C 10.257812 -18.8125 8.804688 -18.203125 7.796875 -16.984375 C 6.796875 -15.765625 6.296875 -13.820312 6.296875 -11.15625 C 6.296875 -8.488281 6.796875 -6.546875 7.796875 -5.328125 C 8.804688 -4.117188 10.257812 -3.515625 12.15625 -3.515625 Z M 12.15625 -3.515625 "/></g></g><g style="fill:#000000;fill-opacity:1;"><g transform="translate(909.906013, 91.424552)"><path style="stroke:none" d="M 12.15625 0.328125 C 10.113281 0.328125 8.3125 -0.0859375 6.75 -0.921875 C 5.1875 -1.765625 3.960938 -3.039062 3.078125 -4.75 C 2.191406 -6.46875 1.75 -8.601562 1.75 -11.15625 C 1.75 -13.707031 2.191406 -15.835938 3.078125 -17.546875 C 3.960938 -19.265625 5.1875 -20.539062 6.75 -21.375 C 8.3125 -22.207031 10.113281 -22.625 12.15625 -22.625 C 14.207031 -22.625 16.007812 -22.207031 17.5625 -21.375 C 19.113281 -20.550781 20.328125 -19.28125 21.203125 -17.5625 C 22.085938 -15.84375 22.53125 -13.707031 22.53125 -11.15625 C 22.53125 -8.601562 22.085938 -6.46875 21.203125 -4.75 C 20.328125 -3.03125 19.113281 -1.753906 17.5625 -0.921875 C 16.007812 -0.0859375 14.207031 0.328125 12.15625 0.328125 Z M 12.15625 -3.515625 C 14.050781 -3.515625 15.492188 -4.117188 16.484375 -5.328125 C 17.484375 -6.546875 17.984375 -8.488281 17.984375 -11.15625 C 17.984375 -13.820312 17.484375 -15.765625 16.484375 -16.984375 C 15.492188 -18.203125 14.050781 -18.8125 12.15625 -18.8125 C 10.257812 -18.8125 8.804688 -18.203125 7.796875 -16.984375 C 6.796875 -15.765625 6.296875 -13.820312 6.296875 -11.15625 C 6.296875 -8.488281 6.796875 -6.546875 7.796875 -5.328125 C 8.804688 -4.117188 10.257812 -3.515625 12.15625 -3.515625 Z M 12.15625 -3.515625 "/></g></g><g style="fill:#000000;fill-opacity:1;"><g transform="translate(933.677432, 91.424552)"><path style="stroke:none" d="M 17.890625 -22.3125 L 17.890625 -18.59375 L 11.4375 -18.59375 L 11.4375 0 L 7.046875 0 L 7.046875 -18.59375 L 0.609375 -18.59375 L 0.609375 -22.3125 Z M 17.890625 -22.3125 "/></g></g><g style="fill:#000000;fill-opacity:1;"><g transform="translate(611.048591, 741.12365)"><path style="stroke:none" d="M 11.828125 0.328125 C 8.753906 0.328125 6.472656 -0.398438 4.984375 -1.859375 C 3.503906 -3.328125 2.765625 -5.492188 2.765625 -8.359375 L 2.765625 -22.3125 L 7.078125 -22.3125 L 7.078125 -8.390625 C 7.078125 -6.765625 7.46875 -5.546875 8.25 -4.734375 C 9.039062 -3.921875 10.234375 -3.515625 11.828125 -3.515625 C 14.992188 -3.515625 16.578125 -5.140625 16.578125 -8.390625 L 16.578125 -22.3125 L 20.890625 -22.3125 L 20.890625 -8.359375 C 20.890625 -5.492188 20.144531 -3.328125 18.65625 -1.859375 C 17.175781 -0.398438 14.898438 0.328125 11.828125 0.328125 Z M 11.828125 0.328125 "/></g></g><g style="fill:#000000;fill-opacity:1;"><g transform="translate(634.697987, 741.12365)"><path style="stroke:none" d="M 9.890625 0.328125 C 8.335938 0.328125 6.957031 0.132812 5.75 -0.25 C 4.550781 -0.632812 3.550781 -1.132812 2.75 -1.75 C 1.945312 -2.375 1.332031 -3.054688 0.90625 -3.796875 L 3.328125 -6.765625 L 3.703125 -6.765625 C 4.378906 -5.765625 5.234375 -4.96875 6.265625 -4.375 C 7.296875 -3.789062 8.503906 -3.5 9.890625 -3.5 C 11.066406 -3.5 11.953125 -3.742188 12.546875 -4.234375 C 13.148438 -4.734375 13.453125 -5.421875 13.453125 -6.296875 C 13.453125 -6.828125 13.351562 -7.269531 13.15625 -7.625 C 12.96875 -7.976562 12.648438 -8.28125 12.203125 -8.53125 C 11.753906 -8.789062 11.148438 -9.015625 10.390625 -9.203125 L 7.515625 -9.859375 C 5.515625 -10.316406 4.023438 -11.078125 3.046875 -12.140625 C 2.066406 -13.203125 1.578125 -14.582031 1.578125 -16.28125 C 1.578125 -17.539062 1.890625 -18.648438 2.515625 -19.609375 C 3.148438 -20.566406 4.066406 -21.304688 5.265625 -21.828125 C 6.472656 -22.359375 7.914062 -22.625 9.59375 -22.625 C 11.3125 -22.625 12.785156 -22.394531 14.015625 -21.9375 C 15.242188 -21.488281 16.28125 -20.796875 17.125 -19.859375 L 14.9375 -16.875 L 14.5625 -16.875 C 13.925781 -17.539062 13.203125 -18.035156 12.390625 -18.359375 C 11.578125 -18.691406 10.644531 -18.859375 9.59375 -18.859375 C 8.382812 -18.859375 7.460938 -18.644531 6.828125 -18.21875 C 6.203125 -17.789062 5.890625 -17.203125 5.890625 -16.453125 C 5.890625 -15.742188 6.109375 -15.179688 6.546875 -14.765625 C 6.992188 -14.347656 7.757812 -14.023438 8.84375 -13.796875 L 11.78125 -13.1875 C 13.945312 -12.726562 15.515625 -11.953125 16.484375 -10.859375 C 17.460938 -9.765625 17.953125 -8.335938 17.953125 -6.578125 C 17.953125 -5.179688 17.648438 -3.96875 17.046875 -2.9375 C 16.453125 -1.90625 15.550781 -1.101562 14.34375 -0.53125 C 13.132812 0.0390625 11.648438 0.328125 9.890625 0.328125 Z M 9.890625 0.328125 "/></g></g><g style="fill:#000000;fill-opacity:1;"><g transform="translate(653.861626, 741.12365)"><path style="stroke:none" d="M 7.3125 -9.796875 L 7.3125 -3.6875 L 17.953125 -3.6875 L 17.953125 0 L 2.90625 0 L 2.90625 -22.3125 L 17.71875 -22.3125 L 17.71875 -18.609375 L 7.3125 -18.609375 L 7.3125 -13.390625 L 16.40625 -13.390625 L 16.40625 -9.796875 Z M 7.3125 -9.796875 "/></g></g><g style="fill:#000000;fill-opacity:1;"><g transform="translate(673.040524, 741.12365)"><path style="stroke:none" d=""/></g></g><g style="fill:#000000;fill-opacity:1;"><g transform="translate(680.409981, 741.12365)"><path style="stroke:none" d="M 7.3125 -9.796875 L 7.3125 -3.6875 L 17.953125 -3.6875 L 17.953125 0 L 2.90625 0 L 2.90625 -22.3125 L 17.71875 -22.3125 L 17.71875 -18.609375 L 7.3125 -18.609375 L 7.3125 -13.390625 L 16.40625 -13.390625 L 16.40625 -9.796875 Z M 7.3125 -9.796875 "/></g></g><g style="fill:#000000;fill-opacity:1;"><g transform="translate(699.588878, 741.12365)"><path style="stroke:none" d="M 4.890625 0 L 0.375 0 L 6.984375 -11.46875 L 0.703125 -22.3125 L 5.390625 -22.3125 L 10.015625 -14.3125 L 10.390625 -14.3125 L 15.09375 -22.3125 L 19.546875 -22.3125 L 13.265625 -11.46875 L 19.859375 0 L 15.203125 0 L 10.234375 -8.609375 L 9.859375 -8.609375 Z M 4.890625 0 "/></g></g><g style="fill:#000000;fill-opacity:1;"><g transform="translate(719.835813, 741.12365)"><path style="stroke:none" d="M 7.3125 0 L 2.90625 0 L 2.90625 -22.3125 L 7.3125 -22.3125 Z M 7.3125 0 "/></g></g><g style="fill:#000000;fill-opacity:1;"><g transform="translate(730.058455, 741.12365)"><path style="stroke:none" d="M 17.890625 -22.3125 L 17.890625 -18.59375 L 11.4375 -18.59375 L 11.4375 0 L 7.046875 0 L 7.046875 -18.59375 L 0.609375 -18.59375 L 0.609375 -22.3125 Z M 17.890625 -22.3125 "/></g></g><g style="fill:#000000;fill-opacity:1;"><g transform="translate(764.401144, 688.270444)"><path style="stroke:none" d="M 7.171875 0 L 2.90625 0 L 2.90625 -22.3125 L 7.953125 -22.3125 L 16.90625 -7.9375 L 17.296875 -8 L 17.296875 -22.3125 L 21.546875 -22.3125 L 21.546875 0 L 17.03125 0 L 7.546875 -15.34375 L 7.171875 -15.296875 Z M 7.171875 0 "/></g></g><g style="fill:#000000;fill-opacity:1;"><g transform="translate(788.859197, 688.270444)"><path style="stroke:none" d="M 7.3125 -9.796875 L 7.3125 -3.6875 L 17.953125 -3.6875 L 17.953125 0 L 2.90625 0 L 2.90625 -22.3125 L 17.71875 -22.3125 L 17.71875 -18.609375 L 7.3125 -18.609375 L 7.3125 -13.390625 L 16.40625 -13.390625 L 16.40625 -9.796875 Z M 7.3125 -9.796875 "/></g></g><g style="fill:#000000;fill-opacity:1;"><g transform="translate(808.038094, 688.270444)"><path style="stroke:none" d="M 4.890625 0 L 0.375 0 L 6.984375 -11.46875 L 0.703125 -22.3125 L 5.390625 -22.3125 L 10.015625 -14.3125 L 10.390625 -14.3125 L 15.09375 -22.3125 L 19.546875 -22.3125 L 13.265625 -11.46875 L 19.859375 0 L 15.203125 0 L 10.234375 -8.609375 L 9.859375 -8.609375 Z M 4.890625 0 "/></g></g><g style="fill:#000000;fill-opacity:1;"><g transform="translate(828.285029, 688.270444)"><path style="stroke:none" d="M 17.890625 -22.3125 L 17.890625 -18.59375 L 11.4375 -18.59375 L 11.4375 0 L 7.046875 0 L 7.046875 -18.59375 L 0.609375 -18.59375 L 0.609375 -22.3125 Z M 17.890625 -22.3125 "/></g></g><g style="fill:#000000;fill-opacity:1;"><g transform="translate(846.77733, 688.270444)"><path style="stroke:none" d="M 6.828125 3.1875 C 5.441406 1.476562 4.328125 -0.425781 3.484375 -2.53125 C 2.640625 -4.632812 2.21875 -7.1875 2.21875 -10.1875 C 2.21875 -13.195312 2.640625 -15.753906 3.484375 -17.859375 C 4.328125 -19.972656 5.441406 -21.882812 6.828125 -23.59375 L 10.078125 -23.59375 L 10.125 -23.265625 C 9.03125 -21.390625 8.179688 -19.4375 7.578125 -17.40625 C 6.984375 -15.382812 6.6875 -12.976562 6.6875 -10.1875 C 6.6875 -7.414062 6.984375 -5.015625 7.578125 -2.984375 C 8.179688 -0.960938 9.03125 0.988281 10.125 2.875 L 10.078125 3.1875 Z M 6.828125 3.1875 "/></g></g><g style="fill:#000000;fill-opacity:1;"><g transform="translate(857.86966, 688.270444)"><path style="stroke:none" d="M 11.828125 0.328125 C 8.753906 0.328125 6.472656 -0.398438 4.984375 -1.859375 C 3.503906 -3.328125 2.765625 -5.492188 2.765625 -8.359375 L 2.765625 -22.3125 L 7.078125 -22.3125 L 7.078125 -8.390625 C 7.078125 -6.765625 7.46875 -5.546875 8.25 -4.734375 C 9.039062 -3.921875 10.234375 -3.515625 11.828125 -3.515625 C 14.992188 -3.515625 16.578125 -5.140625 16.578125 -8.390625 L 16.578125 -22.3125 L 20.890625 -22.3125 L 20.890625 -8.359375 C 20.890625 -5.492188 20.144531 -3.328125 18.65625 -1.859375 C 17.175781 -0.398438 14.898438 0.328125 11.828125 0.328125 Z M 11.828125 0.328125 "/></g></g><g style="fill:#000000;fill-opacity:1;"><g transform="translate(881.519055, 688.270444)"><path style="stroke:none" d="M 7.3125 0 L 2.90625 0 L 2.90625 -22.3125 L 7.3125 -22.3125 Z M 7.3125 0 "/></g></g><g style="fill:#000000;fill-opacity:1;"><g transform="translate(891.741697, 688.270444)"><path style="stroke:none" d="M 0.96875 2.875 C 1.664062 1.644531 2.265625 0.414062 2.765625 -0.8125 C 3.265625 -2.039062 3.660156 -3.429688 3.953125 -4.984375 C 4.253906 -6.546875 4.40625 -8.28125 4.40625 -10.1875 C 4.40625 -12.101562 4.253906 -13.84375 3.953125 -15.40625 C 3.660156 -16.96875 3.265625 -18.363281 2.765625 -19.59375 C 2.273438 -20.820312 1.675781 -22.046875 0.96875 -23.265625 L 1.015625 -23.59375 L 4.25 -23.59375 C 5.125 -22.5 5.894531 -21.34375 6.5625 -20.125 C 7.238281 -18.914062 7.789062 -17.476562 8.21875 -15.8125 C 8.65625 -14.15625 8.875 -12.28125 8.875 -10.1875 C 8.875 -7.1875 8.445312 -4.632812 7.59375 -2.53125 C 6.75 -0.425781 5.632812 1.476562 4.25 3.1875 L 1.015625 3.1875 Z M 0.96875 2.875 "/></g></g><g style="fill:#000000;fill-opacity:1;"><g transform="translate(929.309263, 658.12659)"><path style="stroke:none" d="M 17.890625 -22.3125 L 17.890625 -18.59375 L 11.4375 -18.59375 L 11.4375 0 L 7.046875 0 L 7.046875 -18.59375 L 0.609375 -18.59375 L 0.609375 -22.3125 Z M 17.890625 -22.3125 "/></g></g><g style="fill:#000000;fill-opacity:1;"><g transform="translate(947.267509, 658.12659)"><path style="stroke:none" d="M 12.15625 0.328125 C 10.113281 0.328125 8.3125 -0.0859375 6.75 -0.921875 C 5.1875 -1.765625 3.960938 -3.039062 3.078125 -4.75 C 2.191406 -6.46875 1.75 -8.601562 1.75 -11.15625 C 1.75 -13.707031 2.191406 -15.835938 3.078125 -17.546875 C 3.960938 -19.265625 5.1875 -20.539062 6.75 -21.375 C 8.3125 -22.207031 10.113281 -22.625 12.15625 -22.625 C 14.207031 -22.625 16.007812 -22.207031 17.5625 -21.375 C 19.113281 -20.550781 20.328125 -19.28125 21.203125 -17.5625 C 22.085938 -15.84375 22.53125 -13.707031 22.53125 -11.15625 C 22.53125 -8.601562 22.085938 -6.46875 21.203125 -4.75 C 20.328125 -3.03125 19.113281 -1.753906 17.5625 -0.921875 C 16.007812 -0.0859375 14.207031 0.328125 12.15625 0.328125 Z M 12.15625 -3.515625 C 14.050781 -3.515625 15.492188 -4.117188 16.484375 -5.328125 C 17.484375 -6.546875 17.984375 -8.488281 17.984375 -11.15625 C 17.984375 -13.820312 17.484375 -15.765625 16.484375 -16.984375 C 15.492188 -18.203125 14.050781 -18.8125 12.15625 -18.8125 C 10.257812 -18.8125 8.804688 -18.203125 7.796875 -16.984375 C 6.796875 -15.765625 6.296875 -13.820312 6.296875 -11.15625 C 6.296875 -8.488281 6.796875 -6.546875 7.796875 -5.328125 C 8.804688 -4.117188 10.257812 -3.515625 12.15625 -3.515625 Z M 12.15625 -3.515625 "/></g></g><g style="fill:#000000;fill-opacity:1;"><g transform="translate(971.572985, 658.12659)"><path style="stroke:none" d="M 10.828125 0.328125 C 8.972656 0.328125 7.363281 -0.0976562 6 -0.953125 C 4.644531 -1.804688 3.597656 -3.085938 2.859375 -4.796875 C 2.117188 -6.515625 1.75 -8.632812 1.75 -11.15625 C 1.75 -13.695312 2.191406 -15.820312 3.078125 -17.53125 C 3.960938 -19.25 5.191406 -20.523438 6.765625 -21.359375 C 8.335938 -22.203125 10.160156 -22.625 12.234375 -22.625 C 14.367188 -22.625 16.1875 -22.226562 17.6875 -21.4375 C 19.195312 -20.644531 20.257812 -19.46875 20.875 -17.90625 L 17.65625 -15.953125 L 17.265625 -15.953125 C 16.816406 -16.953125 16.175781 -17.679688 15.34375 -18.140625 C 14.507812 -18.597656 13.472656 -18.828125 12.234375 -18.828125 C 10.316406 -18.828125 8.847656 -18.21875 7.828125 -17 C 6.804688 -15.789062 6.296875 -13.84375 6.296875 -11.15625 C 6.296875 -8.457031 6.769531 -6.5 7.71875 -5.28125 C 8.675781 -4.0625 10.085938 -3.453125 11.953125 -3.453125 C 13.554688 -3.453125 14.738281 -3.8125 15.5 -4.53125 C 16.257812 -5.25 16.640625 -6.328125 16.640625 -7.765625 L 16.640625 -8.734375 L 11.375 -8.734375 L 11.375 -12.3125 L 21.03125 -12.3125 L 21.03125 0 L 16.8125 0 L 16.8125 -2.984375 L 16.5 -3.03125 C 16.039062 -1.96875 15.34375 -1.140625 14.40625 -0.546875 C 13.476562 0.0351562 12.285156 0.328125 10.828125 0.328125 Z M 10.828125 0.328125 "/></g></g><g style="fill:#000000;fill-opacity:1;"><g transform="translate(994.840939, 658.12659)"><path style="stroke:none" d="M 10.828125 0.328125 C 8.972656 0.328125 7.363281 -0.0976562 6 -0.953125 C 4.644531 -1.804688 3.597656 -3.085938 2.859375 -4.796875 C 2.117188 -6.515625 1.75 -8.632812 1.75 -11.15625 C 1.75 -13.695312 2.191406 -15.820312 3.078125 -17.53125 C 3.960938 -19.25 5.191406 -20.523438 6.765625 -21.359375 C 8.335938 -22.203125 10.160156 -22.625 12.234375 -22.625 C 14.367188 -22.625 16.1875 -22.226562 17.6875 -21.4375 C 19.195312 -20.644531 20.257812 -19.46875 20.875 -17.90625 L 17.65625 -15.953125 L 17.265625 -15.953125 C 16.816406 -16.953125 16.175781 -17.679688 15.34375 -18.140625 C 14.507812 -18.597656 13.472656 -18.828125 12.234375 -18.828125 C 10.316406 -18.828125 8.847656 -18.21875 7.828125 -17 C 6.804688 -15.789062 6.296875 -13.84375 6.296875 -11.15625 C 6.296875 -8.457031 6.769531 -6.5 7.71875 -5.28125 C 8.675781 -4.0625 10.085938 -3.453125 11.953125 -3.453125 C 13.554688 -3.453125 14.738281 -3.8125 15.5 -4.53125 C 16.257812 -5.25 16.640625 -6.328125 16.640625 -7.765625 L 16.640625 -8.734375 L 11.375 -8.734375 L 11.375 -12.3125 L 21.03125 -12.3125 L 21.03125 0 L 16.8125 0 L 16.8125 -2.984375 L 16.5 -3.03125 C 16.039062 -1.96875 15.34375 -1.140625 14.40625 -0.546875 C 13.476562 0.0351562 12.285156 0.328125 10.828125 0.328125 Z M 10.828125 0.328125 "/></g></g><g style="fill:#000000;fill-opacity:1;"><g transform="translate(1018.108893, 658.12659)"><path style="stroke:none" d="M 7.3125 -22.3125 L 7.3125 -3.6875 L 17.328125 -3.6875 L 17.328125 0 L 2.90625 0 L 2.90625 -22.3125 Z M 7.3125 -22.3125 "/></g></g><g style="fill:#000000;fill-opacity:1;"><g transform="translate(1036.17398, 658.12659)"><path style="stroke:none" d="M 7.3125 -9.796875 L 7.3125 -3.6875 L 17.953125 -3.6875 L 17.953125 0 L 2.90625 0 L 2.90625 -22.3125 L 17.71875 -22.3125 L 17.71875 -18.609375 L 7.3125 -18.609375 L 7.3125 -13.390625 L 16.40625 -13.390625 L 16.40625 -9.796875 Z M 7.3125 -9.796875 "/></g></g><g style="fill:#000000;fill-opacity:1;"><g transform="translate(1055.352878, 658.12659)"><path style="stroke:none" d=""/></g></g><g style="fill:#000000;fill-opacity:1;"><g transform="translate(1062.722335, 658.12659)"><path style="stroke:none" d="M 11.828125 0.328125 C 8.753906 0.328125 6.472656 -0.398438 4.984375 -1.859375 C 3.503906 -3.328125 2.765625 -5.492188 2.765625 -8.359375 L 2.765625 -22.3125 L 7.078125 -22.3125 L 7.078125 -8.390625 C 7.078125 -6.765625 7.46875 -5.546875 8.25 -4.734375 C 9.039062 -3.921875 10.234375 -3.515625 11.828125 -3.515625 C 14.992188 -3.515625 16.578125 -5.140625 16.578125 -8.390625 L 16.578125 -22.3125 L 20.890625 -22.3125 L 20.890625 -8.359375 C 20.890625 -5.492188 20.144531 -3.328125 18.65625 -1.859375 C 17.175781 -0.398438 14.898438 0.328125 11.828125 0.328125 Z M 11.828125 0.328125 "/></g></g><g style="fill:#000000;fill-opacity:1;"><g transform="translate(1086.37173, 658.12659)"><path style="stroke:none" d="M 7.3125 0 L 2.90625 0 L 2.90625 -22.3125 L 7.3125 -22.3125 Z M 7.3125 0 "/></g></g></g></svg>